<svg width="27" height="27" viewBox="0 0 27 27" fill="none" xmlns="http://www.w3.org/2000/svg">
<g id="Group 47643">
<circle id="Ellipse 6012" cx="13.6663" cy="13.6663" r="13.0435" fill="white" stroke="#DBDBDB" stroke-width="0.57971"/>
<g id="Group">
<path id="Vector" d="M13.6149 15.8822C14.5718 15.8822 15.3475 15.1065 15.3475 14.1496C15.3475 13.1927 14.5718 12.417 13.6149 12.417C12.658 12.417 11.8823 13.1927 11.8823 14.1496C11.8823 15.1065 12.658 15.8822 13.6149 15.8822Z" stroke="#2C2C2C" stroke-width="0.869565" stroke-linecap="round" stroke-linejoin="round"/>
<path id="Vector_2" d="M15.7929 10.6881C15.4648 10.6881 15.1988 10.4221 15.1988 10.094V10.094C15.1988 9.76596 14.9329 9.5 14.6048 9.5H12.6247C12.2966 9.5 12.0307 9.76596 12.0307 10.094V10.094C12.0307 10.4221 11.7647 10.6881 11.4366 10.6881H9.82641C9.18608 10.6881 8.66699 11.2072 8.66699 11.8475V16.4565C8.66699 17.0969 9.18608 17.6159 9.82641 17.6159H17.4031C18.0434 17.6159 18.5625 17.0969 18.5625 16.4565V11.8475C18.5625 11.2072 18.0435 10.6881 17.4031 10.6881H15.7929Z" stroke="#2C2C2C" stroke-width="0.869565" stroke-linecap="round" stroke-linejoin="round"/>
</g>
</g>
</svg>
